<svg xmlns="http://www.w3.org/2000/svg" xmlns:xlink="http://www.w3.org/1999/xlink"><symbol id="icon-fb" viewBox="0 0 14 27"><path d="M13.473.006L10.115 0c-3.773 0-6.21 2.608-6.21 6.645v3.063H.527A.54.54 0 000 10.26v4.44c0 .303.237.55.528.55h3.376v11.2a.54.54 0 00.528.551h4.405a.54.54 0 00.528-.55V15.248h3.948a.54.54 0 00.528-.55l.002-4.44a.563.563 0 00-.155-.39.517.517 0 00-.374-.16H9.365V7.11c0-1.248.286-1.882 1.845-1.882h2.262A.54.54 0 0014 4.677V.556a.54.54 0 00-.527-.55z"/></symbol><symbol id="icon-insta" viewBox="0 0 27 27"><path d="M19.691 0H7.31C3.279 0 0 3.279 0 7.309v12.383C0 23.722 3.279 27 7.309 27h12.383C23.722 27 27 23.721 27 19.692V7.309C27 3.279 23.721 0 19.691 0zM13.5 20.883c-4.07 0-7.383-3.312-7.383-7.383 0-4.07 3.312-7.383 7.383-7.383 4.07 0 7.383 3.312 7.383 7.383 0 4.07-3.312 7.383-7.383 7.383zm7.56-13.025a2.184 2.184 0 01-2.182-2.181c0-1.203.978-2.182 2.181-2.182s2.182.979 2.182 2.182a2.184 2.184 0 01-2.182 2.181z"/><path d="M13.5 7.7a5.806 5.806 0 00-5.8 5.8c0 3.198 2.602 5.8 5.8 5.8s5.8-2.602 5.8-5.8-2.602-5.8-5.8-5.8zm7.558-2.621a.6.6 0 10.002 1.198.6.6 0 00-.002-1.198z"/></symbol><symbol id="icon-logo" viewBox="0 0 87 20"><path d="M.676 5.168c0-1.473.355-2.6 1.066-3.38C2.452.991 3.502.592 4.888.592c1.387 0 2.435.399 3.146 1.196.71.78 1.066 1.907 1.066 3.38v.572H6.396v-.754c0-1.196-.477-1.794-1.43-1.794s-1.43.598-1.43 1.794c0 .676.19 1.317.572 1.924.381.59.84 1.127 1.378 1.612.555.485 1.11.997 1.664 1.534.555.52 1.023 1.179 1.404 1.976.381.78.572 1.647.572 2.6 0 1.473-.364 2.609-1.092 3.406-.728.78-1.785 1.17-3.172 1.17-1.387 0-2.444-.39-3.172-1.17-.728-.797-1.092-1.933-1.092-3.406v-1.118h2.704v1.3c0 1.179.494 1.768 1.482 1.768s1.482-.59 1.482-1.768a3.43 3.43 0 00-.572-1.898 7.405 7.405 0 00-1.404-1.638c-.537-.485-1.083-.988-1.638-1.508-.555-.537-1.023-1.196-1.404-1.976C.867 6.997.676 6.121.676 5.168zM11.155.8h2.86v14.04c0 1.179.494 1.768 1.482 1.768s1.482-.59 1.482-1.768V.8h2.704v13.858c0 1.473-.364 2.609-1.092 3.406-.728.78-1.786 1.17-3.172 1.17-1.387 0-2.444-.39-3.172-1.17-.728-.797-1.092-1.933-1.092-3.406V.8zm15.221 0c2.843 0 4.264 1.5 4.264 4.498v2.366c0 2.999-1.421 4.498-4.264 4.498h-1.352V19h-2.86V.8h4.212zm0 2.6h-1.352v6.162h1.352c.468 0 .815-.13 1.04-.39.243-.26.364-.702.364-1.326v-2.73c0-.624-.121-1.066-.364-1.326-.225-.26-.572-.39-1.04-.39zm8.969 0v5.07h3.926v2.6h-3.926v5.33h4.94V19h-7.8V.8h7.8v2.6h-4.94zM51.469 19h-2.912c-.173-.52-.26-1.265-.26-2.236v-2.86c0-.832-.147-1.421-.442-1.768-.295-.364-.771-.546-1.43-.546h-.988V19h-2.86V.8h4.316c1.473 0 2.548.347 3.224 1.04.676.676 1.014 1.725 1.014 3.146v1.43c0 1.872-.624 3.103-1.872 3.692 1.265.537 1.898 1.829 1.898 3.874v2.808c0 .988.104 1.725.312 2.21zM46.815 3.4h-1.378v5.59h1.118c.572 0 .997-.147 1.274-.442.295-.295.442-.789.442-1.482V5.272c0-1.248-.485-1.872-1.456-1.872zm11.033 8.06v-2.6h4.004v5.772c0 1.473-.364 2.609-1.092 3.406-.728.78-1.785 1.17-3.172 1.17-1.387 0-2.444-.39-3.172-1.17-.728-.797-1.092-1.933-1.092-3.406V5.168c0-1.473.364-2.6 1.092-3.38.728-.797 1.785-1.196 3.172-1.196 1.387 0 2.444.399 3.172 1.196.728.78 1.092 1.907 1.092 3.38v1.768h-2.704v-1.95c0-1.196-.494-1.794-1.482-1.794s-1.482.598-1.482 1.794v9.828c0 1.179.494 1.768 1.482 1.768s1.482-.59 1.482-1.768V11.46h-1.3zM66.506 19v-6.032L62.892.8h2.99l2.184 8.294L70.25.8h2.73l-3.614 12.168V19h-2.86zM78.609.8l2.106 12.922L82.665.8h3.978V19h-2.704V5.948L81.963 19h-2.704L77.127 6.13V19H74.63V.8h3.978z" fill="#fff"/></symbol><symbol id="icon-vk" viewBox="0 0 32 17"><path fill-rule="evenodd" clip-rule="evenodd" d="M27.54 10.81c1.062.972 2.182 1.888 3.134 2.959.421.476.82.967 1.124 1.519.431.785.04 1.65-.71 1.696l-4.661-.002c-1.203.094-2.162-.36-2.968-1.132-.646-.618-1.244-1.274-1.864-1.912a4.338 4.338 0 00-.84-.7c-.636-.388-1.188-.27-1.552.354-.37.633-.454 1.335-.49 2.041-.05 1.03-.382 1.302-1.485 1.349-2.356.104-4.593-.23-6.67-1.346-1.832-.984-3.253-2.373-4.49-3.945C3.663 8.629 1.819 5.264.163 1.806-.211 1.026.062.608.977.593 2.498.566 4.02.568 5.541.591c.618.009 1.028.342 1.266.89.823 1.9 1.83 3.706 3.094 5.381.336.446.68.892 1.168 1.206.54.347.952.232 1.207-.333.161-.359.232-.745.268-1.129.12-1.32.136-2.64-.075-3.956-.13-.821-.622-1.353-1.496-1.508-.445-.08-.379-.235-.163-.474.375-.412.727-.668 1.43-.668h5.268c.83.154 1.014.503 1.127 1.287l.005 5.494c-.01.303.161 1.203.743 1.404.466.143.773-.207 1.052-.484 1.262-1.257 2.162-2.742 2.966-4.28.357-.677.664-1.379.962-2.08.22-.521.566-.778 1.19-.766l5.072.004c.15 0 .302.002.448.025.854.137 1.088.482.824 1.265-.415 1.23-1.225 2.253-2.016 3.282-.845 1.099-1.75 2.16-2.588 3.264-.77 1.01-.71 1.518.248 2.394z"/></symbol></svg>